<svg width="22" height="19" viewBox="0 0 22 19" fill="none" xmlns="http://www.w3.org/2000/svg">
<path fill-rule="evenodd" clip-rule="evenodd" d="M0 1.80957C0 1.25729 0.447715 0.80957 1 0.80957H7.19048C7.52483 0.80957 7.83706 0.976671 8.02253 1.25487L9.63042 3.66671H21C21.5523 3.66671 22 4.11443 22 4.66671V18C22 18.5523 21.5523 19 21 19H1C0.447715 19 0 18.5523 0 18V1.80957ZM2 2.80957V17H20V5.66671H9.09524C8.76089 5.66671 8.44865 5.49961 8.26319 5.22141L6.65529 2.80957H2Z" fill="#05182A"/>
<path fill-rule="evenodd" clip-rule="evenodd" d="M11 8.04761C10.5003 8.04761 10.0952 8.45268 10.0952 8.95237C10.0952 9.45206 10.5003 9.85713 11 9.85713C11.4997 9.85713 11.9048 9.45206 11.9048 8.95237C11.9048 8.45268 11.4997 8.04761 11 8.04761ZM8.09525 8.95237C8.09525 7.34811 9.39575 6.04761 11 6.04761C12.6043 6.04761 13.9048 7.34811 13.9048 8.95237C13.9048 10.5566 12.6043 11.8571 11 11.8571C9.39575 11.8571 8.09525 10.5566 8.09525 8.95237Z" fill="#05182A"/>
<path fill-rule="evenodd" clip-rule="evenodd" d="M9.4348 14.6191H12.5652C12.2352 14.1036 11.6575 13.762 11 13.762C10.3425 13.762 9.76482 14.1036 9.4348 14.6191ZM7.14285 15.6191C7.14285 13.4889 8.86975 11.762 11 11.762C13.1302 11.762 14.8571 13.4889 14.8571 15.6191C14.8571 16.1714 14.4094 16.6191 13.8571 16.6191H8.14285C7.59057 16.6191 7.14285 16.1714 7.14285 15.6191Z" fill="#05182A"/>
</svg>
