<svg width="56" height="79" viewBox="0 0 56 79" fill="none" xmlns="http://www.w3.org/2000/svg">
<rect width="56" height="56" rx="16" fill="#FAFAFA"/>
<path fill-rule="evenodd" clip-rule="evenodd" d="M25.1432 25.3334V32.6667H30.8575V25.3334H33.5242V32.6667C33.5242 34.1395 32.3303 35.3334 30.8575 35.3334H25.1432C23.6705 35.3334 22.4766 34.1395 22.4766 32.6667V25.3334H25.1432Z" fill="#77E3FF"/>
<path fill-rule="evenodd" clip-rule="evenodd" d="M27.2354 21.5744C27.6945 21.253 28.3055 21.253 28.7646 21.5744L35.4313 26.2411L33.9021 28.4257L28 24.2942L22.098 28.4257L20.5687 26.2411L27.2354 21.5744Z" fill="#77E3FF"/>
<path fill-rule="evenodd" clip-rule="evenodd" d="M28 16C27.5941 16 27.1932 16.0201 26.7984 16.0594L26.5349 13.4057C27.0172 13.3579 27.5059 13.3334 28 13.3334C36.1002 13.3334 42.6667 19.8999 42.6667 28C42.6667 30.9781 41.7777 33.7526 40.2502 36.0677L38.0244 34.5991C39.2731 32.7064 40 30.4401 40 28C40 21.3726 34.6274 16 28 16ZM17.9756 21.401C16.7269 23.2937 16 25.5599 16 28C16 34.6275 21.3726 40 28 40C28.4059 40 28.8068 39.9799 29.2016 39.9407L29.4651 42.5943C28.9828 42.6422 28.4941 42.6667 28 42.6667C19.8998 42.6667 13.3333 36.1002 13.3333 28C13.3333 25.022 14.2224 22.2475 15.7498 19.9324L17.9756 21.401Z" fill="#1976D2"/>
<path fill-rule="evenodd" clip-rule="evenodd" d="M18.6667 17.3334C17.9303 17.3334 17.3334 17.9304 17.3334 18.6667C17.3334 19.4031 17.9303 20.0001 18.6667 20.0001C19.4031 20.0001 20 19.4031 20 18.6667C20 17.9304 19.4031 17.3334 18.6667 17.3334ZM14.6667 18.6667C14.6667 16.4576 16.4575 14.6667 18.6667 14.6667C20.8758 14.6667 22.6667 16.4576 22.6667 18.6667C22.6667 20.8759 20.8758 22.6667 18.6667 22.6667C16.4575 22.6667 14.6667 20.8759 14.6667 18.6667Z" fill="#1976D2"/>
<path fill-rule="evenodd" clip-rule="evenodd" d="M37.3333 36C36.597 36 36 36.597 36 37.3334C36 38.0698 36.597 38.6667 37.3333 38.6667C38.0697 38.6667 38.6667 38.0698 38.6667 37.3334C38.6667 36.597 38.0697 36 37.3333 36ZM33.3333 37.3334C33.3333 35.1242 35.1242 33.3334 37.3333 33.3334C39.5425 33.3334 41.3333 35.1242 41.3333 37.3334C41.3333 39.5425 39.5425 41.3334 37.3333 41.3334C35.1242 41.3334 33.3333 39.5425 33.3333 37.3334Z" fill="#1976D2"/>
<path d="M7.34 68.05V68.98H4.39V71.03H6.69V71.96H4.39V75H3.25V68.05H7.34ZM9.63648 70.29C9.80315 70.01 10.0232 69.7933 10.2965 69.64C10.5765 69.48 10.9065 69.4 11.2865 69.4V70.58H10.9965C10.5498 70.58 10.2098 70.6933 9.97648 70.92C9.74982 71.1467 9.63648 71.54 9.63648 72.1V75H8.49648V69.49H9.63648V70.29ZM17.4844 72.11C17.4844 72.3167 17.471 72.5033 17.4444 72.67H13.2344C13.2677 73.11 13.431 73.4633 13.7244 73.73C14.0177 73.9967 14.3777 74.13 14.8044 74.13C15.4177 74.13 15.851 73.8733 16.1044 73.36H17.3344C17.1677 73.8667 16.8644 74.2833 16.4244 74.61C15.991 74.93 15.451 75.09 14.8044 75.09C14.2777 75.09 13.8044 74.9733 13.3844 74.74C12.971 74.5 12.6444 74.1667 12.4044 73.74C12.171 73.3067 12.0544 72.8067 12.0544 72.24C12.0544 71.6733 12.1677 71.1767 12.3944 70.75C12.6277 70.3167 12.951 69.9833 13.3644 69.75C13.7844 69.5167 14.2644 69.4 14.8044 69.4C15.3244 69.4 15.7877 69.5133 16.1944 69.74C16.601 69.9667 16.9177 70.2867 17.1444 70.7C17.371 71.1067 17.4844 71.5767 17.4844 72.11ZM16.2944 71.75C16.2877 71.33 16.1377 70.9933 15.8444 70.74C15.551 70.4867 15.1877 70.36 14.7544 70.36C14.361 70.36 14.0244 70.4867 13.7444 70.74C13.4644 70.9867 13.2977 71.3233 13.2444 71.75H16.2944ZM23.7563 72.11C23.7563 72.3167 23.7429 72.5033 23.7163 72.67H19.5063C19.5396 73.11 19.7029 73.4633 19.9963 73.73C20.2896 73.9967 20.6496 74.13 21.0763 74.13C21.6896 74.13 22.1229 73.8733 22.3763 73.36H23.6063C23.4396 73.8667 23.1363 74.2833 22.6963 74.61C22.2629 74.93 21.7229 75.09 21.0763 75.09C20.5496 75.09 20.0763 74.9733 19.6563 74.74C19.2429 74.5 18.9163 74.1667 18.6763 73.74C18.4429 73.3067 18.3263 72.8067 18.3263 72.24C18.3263 71.6733 18.4396 71.1767 18.6663 70.75C18.8996 70.3167 19.2229 69.9833 19.6363 69.75C20.0563 69.5167 20.5363 69.4 21.0763 69.4C21.5963 69.4 22.0596 69.5133 22.4663 69.74C22.8729 69.9667 23.1896 70.2867 23.4163 70.7C23.6429 71.1067 23.7563 71.5767 23.7563 72.11ZM22.5663 71.75C22.5596 71.33 22.4096 70.9933 22.1163 70.74C21.8229 70.4867 21.4596 70.36 21.0263 70.36C20.6329 70.36 20.2963 70.4867 20.0163 70.74C19.7363 70.9867 19.5696 71.3233 19.5163 71.75H22.5663ZM26.1181 67.6V75H24.9781V67.6H26.1181ZM27.3348 72.22C27.3348 71.6667 27.4482 71.1767 27.6748 70.75C27.9082 70.3233 28.2215 69.9933 28.6148 69.76C29.0148 69.52 29.4548 69.4 29.9348 69.4C30.3682 69.4 30.7448 69.4867 31.0648 69.66C31.3915 69.8267 31.6515 70.0367 31.8448 70.29V69.49H32.9948V75H31.8448V74.18C31.6515 74.44 31.3882 74.6567 31.0548 74.83C30.7215 75.0033 30.3415 75.09 29.9148 75.09C29.4415 75.09 29.0082 74.97 28.6148 74.73C28.2215 74.4833 27.9082 74.1433 27.6748 73.71C27.4482 73.27 27.3348 72.7733 27.3348 72.22ZM31.8448 72.24C31.8448 71.86 31.7648 71.53 31.6048 71.25C31.4515 70.97 31.2482 70.7567 30.9948 70.61C30.7415 70.4633 30.4682 70.39 30.1748 70.39C29.8815 70.39 29.6082 70.4633 29.3548 70.61C29.1015 70.75 28.8948 70.96 28.7348 71.24C28.5815 71.5133 28.5048 71.84 28.5048 72.22C28.5048 72.6 28.5815 72.9333 28.7348 73.22C28.8948 73.5067 29.1015 73.7267 29.3548 73.88C29.6148 74.0267 29.8882 74.1 30.1748 74.1C30.4682 74.1 30.7415 74.0267 30.9948 73.88C31.2482 73.7333 31.4515 73.52 31.6048 73.24C31.7648 72.9533 31.8448 72.62 31.8448 72.24ZM37.3722 69.4C37.8055 69.4 38.1922 69.49 38.5322 69.67C38.8789 69.85 39.1489 70.1167 39.3422 70.47C39.5355 70.8233 39.6322 71.25 39.6322 71.75V75H38.5022V71.92C38.5022 71.4267 38.3789 71.05 38.1322 70.79C37.8855 70.5233 37.5489 70.39 37.1222 70.39C36.6955 70.39 36.3555 70.5233 36.1022 70.79C35.8555 71.05 35.7322 71.4267 35.7322 71.92V75H34.5922V69.49H35.7322V70.12C35.9189 69.8933 36.1555 69.7167 36.4422 69.59C36.7355 69.4633 37.0455 69.4 37.3722 69.4ZM40.8063 72.24C40.8063 71.6733 40.9197 71.1767 41.1463 70.75C41.3797 70.3167 41.6997 69.9833 42.1063 69.75C42.513 69.5167 42.9797 69.4 43.5063 69.4C44.173 69.4 44.723 69.56 45.1563 69.88C45.5963 70.1933 45.893 70.6433 46.0463 71.23H44.8163C44.7163 70.9567 44.5563 70.7433 44.3363 70.59C44.1163 70.4367 43.8397 70.36 43.5063 70.36C43.0397 70.36 42.6663 70.5267 42.3863 70.86C42.113 71.1867 41.9763 71.6467 41.9763 72.24C41.9763 72.8333 42.113 73.2967 42.3863 73.63C42.6663 73.9633 43.0397 74.13 43.5063 74.13C44.1663 74.13 44.603 73.84 44.8163 73.26H46.0463C45.8863 73.82 45.5863 74.2667 45.1463 74.6C44.7063 74.9267 44.1597 75.09 43.5063 75.09C42.9797 75.09 42.513 74.9733 42.1063 74.74C41.6997 74.5 41.3797 74.1667 41.1463 73.74C40.9197 73.3067 40.8063 72.8067 40.8063 72.24ZM52.3324 72.11C52.3324 72.3167 52.3191 72.5033 52.2924 72.67H48.0824C48.1158 73.11 48.2791 73.4633 48.5724 73.73C48.8658 73.9967 49.2258 74.13 49.6524 74.13C50.2658 74.13 50.6991 73.8733 50.9524 73.36H52.1824C52.0158 73.8667 51.7124 74.2833 51.2724 74.61C50.8391 74.93 50.2991 75.09 49.6524 75.09C49.1258 75.09 48.6524 74.9733 48.2324 74.74C47.8191 74.5 47.4924 74.1667 47.2524 73.74C47.0191 73.3067 46.9024 72.8067 46.9024 72.24C46.9024 71.6733 47.0158 71.1767 47.2424 70.75C47.4758 70.3167 47.7991 69.9833 48.2124 69.75C48.6324 69.5167 49.1124 69.4 49.6524 69.4C50.1724 69.4 50.6358 69.5133 51.0424 69.74C51.4491 69.9667 51.7658 70.2867 51.9924 70.7C52.2191 71.1067 52.3324 71.5767 52.3324 72.11ZM51.1424 71.75C51.1358 71.33 50.9858 70.9933 50.6924 70.74C50.3991 70.4867 50.0358 70.36 49.6024 70.36C49.2091 70.36 48.8724 70.4867 48.5924 70.74C48.3124 70.9867 48.1458 71.3233 48.0924 71.75H51.1424Z" fill="#05182A"/>
</svg>
