<svg width="56" height="79" viewBox="0 0 56 79" fill="none" xmlns="http://www.w3.org/2000/svg">
<rect width="56" height="56" rx="16" fill="#FAFAFA"/>
<path fill-rule="evenodd" clip-rule="evenodd" d="M34.6667 29.3334C31.7212 29.3334 29.3334 31.7212 29.3334 34.6667C29.3334 37.6123 31.7212 40.0001 34.6667 40.0001C37.6122 40.0001 40 37.6123 40 34.6667C40 31.7212 37.6122 29.3334 34.6667 29.3334ZM26.6667 34.6667C26.6667 30.2485 30.2484 26.6667 34.6667 26.6667C39.085 26.6667 42.6667 30.2485 42.6667 34.6667C42.6667 39.085 39.085 42.6667 34.6667 42.6667C30.2484 42.6667 26.6667 39.085 26.6667 34.6667Z" fill="#77E3FF"/>
<path fill-rule="evenodd" clip-rule="evenodd" d="M25.3333 16C22.756 16 20.6667 18.0894 20.6667 20.6667C20.6667 23.244 22.756 25.3334 25.3333 25.3334C27.9107 25.3334 30 23.244 30 20.6667C30 18.0894 27.9107 16 25.3333 16ZM18 20.6667C18 16.6166 21.2832 13.3334 25.3333 13.3334C29.3834 13.3334 32.6667 16.6166 32.6667 20.6667C32.6667 24.7168 29.3834 28 25.3333 28C21.2832 28 18 24.7168 18 20.6667Z" fill="#1976D2"/>
<path fill-rule="evenodd" clip-rule="evenodd" d="M25.3333 28C20.1787 28 16 32.1787 16 37.3334H13.3333C13.3333 30.706 18.7059 25.3334 25.3333 25.3334V28Z" fill="#1976D2"/>
<path fill-rule="evenodd" clip-rule="evenodd" d="M33.3333 34V31.3334H36V35.3334C36 36.0698 35.403 36.6667 34.6667 36.6667H32V34H33.3333Z" fill="#77E3FF"/>
<path d="M12.34 68.05V68.98H9.39V71.03H11.69V71.96H9.39V75H8.25V68.05H12.34ZM18.4865 69.49V75H17.3465V74.35C17.1665 74.5767 16.9298 74.7567 16.6365 74.89C16.3498 75.0167 16.0432 75.08 15.7165 75.08C15.2832 75.08 14.8932 74.99 14.5465 74.81C14.2065 74.63 13.9365 74.3633 13.7365 74.01C13.5432 73.6567 13.4465 73.23 13.4465 72.73V69.49H14.5765V72.56C14.5765 73.0533 14.6998 73.4333 14.9465 73.7C15.1932 73.96 15.5298 74.09 15.9565 74.09C16.3832 74.09 16.7198 73.96 16.9665 73.7C17.2198 73.4333 17.3465 73.0533 17.3465 72.56V69.49H18.4865ZM21.2306 67.6V75H20.0906V67.6H21.2306ZM23.9673 67.6V75H22.8273V67.6H23.9673ZM26.8941 70.42V73.47C26.8941 73.6767 26.9407 73.8267 27.0341 73.92C27.1341 74.0067 27.3007 74.05 27.5341 74.05H28.2341V75H27.3341C26.8207 75 26.4274 74.88 26.1541 74.64C25.8807 74.4 25.7441 74.01 25.7441 73.47V70.42H25.0941V69.49H25.7441V68.12H26.8941V69.49H28.2341V70.42H26.8941ZM29.9648 68.76C29.7581 68.76 29.5848 68.69 29.4448 68.55C29.3048 68.41 29.2348 68.2367 29.2348 68.03C29.2348 67.8233 29.3048 67.65 29.4448 67.51C29.5848 67.37 29.7581 67.3 29.9648 67.3C30.1648 67.3 30.3348 67.37 30.4748 67.51C30.6148 67.65 30.6848 67.8233 30.6848 68.03C30.6848 68.2367 30.6148 68.41 30.4748 68.55C30.3348 68.69 30.1648 68.76 29.9648 68.76ZM30.5248 69.49V75H29.3848V69.49H30.5248ZM38.7915 69.4C39.2248 69.4 39.6115 69.49 39.9515 69.67C40.2982 69.85 40.5682 70.1167 40.7615 70.47C40.9615 70.8233 41.0615 71.25 41.0615 71.75V75H39.9315V71.92C39.9315 71.4267 39.8082 71.05 39.5615 70.79C39.3148 70.5233 38.9782 70.39 38.5515 70.39C38.1248 70.39 37.7848 70.5233 37.5315 70.79C37.2848 71.05 37.1615 71.4267 37.1615 71.92V75H36.0315V71.92C36.0315 71.4267 35.9082 71.05 35.6615 70.79C35.4148 70.5233 35.0782 70.39 34.6515 70.39C34.2248 70.39 33.8848 70.5233 33.6315 70.79C33.3848 71.05 33.2615 71.4267 33.2615 71.92V75H32.1215V69.49H33.2615V70.12C33.4482 69.8933 33.6848 69.7167 33.9715 69.59C34.2582 69.4633 34.5648 69.4 34.8915 69.4C35.3315 69.4 35.7248 69.4933 36.0715 69.68C36.4182 69.8667 36.6848 70.1367 36.8715 70.49C37.0382 70.1567 37.2982 69.8933 37.6515 69.7C38.0048 69.5 38.3848 69.4 38.7915 69.4ZM47.6621 72.11C47.6621 72.3167 47.6488 72.5033 47.6221 72.67H43.4121C43.4454 73.11 43.6088 73.4633 43.9021 73.73C44.1954 73.9967 44.5554 74.13 44.9821 74.13C45.5954 74.13 46.0288 73.8733 46.2821 73.36H47.5121C47.3454 73.8667 47.0421 74.2833 46.6021 74.61C46.1688 74.93 45.6288 75.09 44.9821 75.09C44.4554 75.09 43.9821 74.9733 43.5621 74.74C43.1488 74.5 42.8221 74.1667 42.5821 73.74C42.3488 73.3067 42.2321 72.8067 42.2321 72.24C42.2321 71.6733 42.3454 71.1767 42.5721 70.75C42.8054 70.3167 43.1288 69.9833 43.5421 69.75C43.9621 69.5167 44.4421 69.4 44.9821 69.4C45.5021 69.4 45.9654 69.5133 46.3721 69.74C46.7788 69.9667 47.0954 70.2867 47.3221 70.7C47.5488 71.1067 47.6621 71.5767 47.6621 72.11ZM46.4721 71.75C46.4654 71.33 46.3154 70.9933 46.0221 70.74C45.7288 70.4867 45.3654 70.36 44.9321 70.36C44.5388 70.36 44.2021 70.4867 43.9221 70.74C43.6421 70.9867 43.4754 71.3233 43.4221 71.75H46.4721Z" fill="#05182A"/>
</svg>
