<svg width="315" height="152" viewBox="0 0 315 152" fill="none" xmlns="http://www.w3.org/2000/svg">
<rect width="315" height="152" rx="16" fill="#E4F9FF"/>
<mask id="mask0_2_525" style="mask-type:alpha" maskUnits="userSpaceOnUse" x="0" y="0" width="315" height="152">
<rect width="315" height="152" rx="16" fill="#E4F9FF"/>
</mask>
<g mask="url(#mask0_2_525)">

<path d="M297.092 56.4777C291.571 54.6405 285.436 46.6794 283.059 42.9285C277.767 36.0293 284.669 34.2019 290.88 40.1728C297.092 46.1436 297.092 42.9285 302.153 48.44C307.214 53.9515 303.993 58.7741 297.092 56.4777Z" fill="#D2F6FF"/>
<path d="M175.58 105.697C166.413 119.423 170.132 132.518 175.424 141.53C179.675 148.768 188.146 151.856 196.551 151.856H273.985C290.373 151.856 306.595 140.072 312.724 124.9C317.502 113.072 321.221 99.9888 316.306 87.3556C307.104 63.702 293.531 68.0653 276.277 47.6268C259.023 27.1882 240.869 32.1211 212.552 43.2635C172.359 59.0787 193.064 79.5173 175.58 105.697Z" fill="#D2F6FF"/>
<path d="M192.504 36.5267C192.504 32.6008 195.684 29.4182 199.607 29.4182H252.666C256.589 29.4182 259.769 32.6008 259.769 36.5267V144.329C259.769 148.255 256.589 151.438 252.666 151.438H199.607C195.684 151.438 192.504 148.255 192.504 144.329V36.5267Z" fill="white"/>
<path fill-rule="evenodd" clip-rule="evenodd" d="M192.086 36.5266C192.086 32.3698 195.453 29 199.607 29H252.666C256.819 29 260.186 32.3698 260.186 36.5266V144.329C260.186 148.486 256.819 151.856 252.666 151.856H199.607C195.453 151.856 192.086 148.486 192.086 144.329V36.5266ZM199.607 29.8363C195.915 29.8363 192.922 32.8316 192.922 36.5266V144.329C192.922 148.024 195.915 151.02 199.607 151.02H252.666C256.358 151.02 259.351 148.024 259.351 144.329V36.5266C259.351 32.8316 256.358 29.8363 252.666 29.8363H199.607Z" fill="#082746"/>
<path d="M212.362 130.872C212.362 129.718 213.297 128.781 214.451 128.781H238.442C239.596 128.781 240.531 129.718 240.531 130.872V132.699C240.531 133.854 239.596 134.79 238.442 134.79H214.451C213.297 134.79 212.362 133.854 212.362 132.699V130.872Z" fill="#1976D2"/>
<path d="M207.062 118.613C205.908 118.613 204.973 117.677 204.973 116.523L204.973 109.149C204.973 107.995 205.908 107.059 207.062 107.059L208.887 107.059C210.041 107.059 210.976 107.995 210.976 109.149L210.976 116.523C210.976 117.677 210.041 118.613 208.887 118.613L207.062 118.613Z" fill="#E7E8FF"/>
<path d="M219.068 118.613C217.915 118.613 216.979 117.677 216.979 116.523L216.979 104.527C216.979 103.373 217.915 102.437 219.068 102.437L220.894 102.437C222.048 102.437 222.983 103.373 222.983 104.527L222.983 116.523C222.983 117.677 222.048 118.613 220.894 118.613L219.068 118.613Z" fill="#E7E8FF"/>
<path d="M231.075 118.613C229.922 118.613 228.986 117.677 228.986 116.523L228.986 100.83C228.986 99.6751 229.922 98.7391 231.075 98.7391L232.901 98.7391C234.055 98.7391 234.99 99.6751 234.99 100.83L234.99 116.523C234.99 117.677 234.055 118.613 232.901 118.613L231.075 118.613Z" fill="#E7E8FF"/>
<path d="M243.082 118.613C241.929 118.613 240.993 117.677 240.993 116.523L240.993 109.149C240.993 107.995 241.929 107.059 243.082 107.059L244.908 107.059C246.061 107.059 246.997 107.995 246.997 109.149L246.997 116.523C246.997 117.677 246.061 118.613 244.908 118.613L243.082 118.613Z" fill="#E7E8FF"/>
<path d="M212.293 32.6301L210.582 29.418H241.691L239.612 32.8872C238.554 34.6504 236.651 35.7293 234.596 35.7293H217.454C215.294 35.7293 213.31 34.5378 212.293 32.6301Z" fill="#082746"/>
<path d="M258.087 31.9425H194.186C196.372 29.7545 198.46 29.3478 199.231 29.4179H253.042C255.733 29.4179 257.526 31.101 258.087 31.9425Z" fill="#082746"/>
<path d="M258.087 148.913H194.186C196.372 151.101 198.46 151.508 199.231 151.438H253.042C255.733 151.438 257.526 149.755 258.087 148.913Z" fill="#082746"/>
<path fill-rule="evenodd" clip-rule="evenodd" d="M235.793 62.6444H204.511V61.8081H235.793V62.6444Z" fill="#E7E8FF"/>
<path fill-rule="evenodd" clip-rule="evenodd" d="M204.832 71.2193C204.832 69.8337 205.954 68.7104 207.339 68.7104H239.615C241 68.7104 242.122 69.8337 242.122 71.2193V84.7876C242.122 86.1732 241 87.2965 239.615 87.2965H207.339C205.954 87.2965 204.832 86.1732 204.832 84.7876V71.2193ZM207.339 69.5467C206.416 69.5467 205.667 70.2956 205.667 71.2193V84.7876C205.667 85.7113 206.416 86.4602 207.339 86.4602H239.615C240.538 86.4602 241.287 85.7113 241.287 84.7876V71.2193C241.287 70.2956 240.538 69.5467 239.615 69.5467H207.339Z" fill="#1976D2"/>
<path fill-rule="evenodd" clip-rule="evenodd" d="M217.821 73.0631C217.486 72.5342 216.711 72.548 216.395 73.0885L211.885 80.799C211.585 81.3116 211.036 81.6266 210.443 81.6266H205.25V80.7904H210.443C210.739 80.7904 211.014 80.6328 211.164 80.3765L215.673 72.666C216.306 71.5851 217.857 71.5575 218.527 72.6152L222.885 79.4938C223.193 79.9799 223.888 80.0166 224.246 79.5656L227.918 74.9311C228.55 74.1344 229.739 74.0812 230.439 74.8185L233.755 78.3113C233.912 78.4775 234.131 78.5716 234.36 78.5716H241.458V79.4079H234.36C233.902 79.4079 233.464 79.2197 233.149 78.8873L229.833 75.3945C229.483 75.0258 228.889 75.0524 228.573 75.4508L224.9 80.0853C224.186 80.9872 222.796 80.9138 222.18 79.9417L217.821 73.0631Z" fill="#1976D2"/>
<path fill-rule="evenodd" clip-rule="evenodd" d="M247.92 55.7115H204.511V54.8752H247.92V55.7115Z" fill="#E7E8FF"/>
<path d="M234.697 85.1856C235.027 86.5306 236.552 87.4758 236.827 87.9661L231.816 92.3309C230.993 90.7197 229.829 87.2581 225.713 86.7537C219.951 86.1232 219.45 81.8069 222.331 81.1765C224.636 80.6721 228.66 81.4836 230.787 81.9039L228.357 80.8477C228.021 80.7014 227.907 80.2807 228.125 79.9851C228.244 79.8218 228.441 79.7332 228.644 79.7452C229.471 79.7946 230.99 79.8678 232.228 80.7723C233.444 81.6614 234.286 83.5043 234.697 85.1856Z" fill="#EFCB96"/>
<path d="M315.184 152L313.732 138.148L262.946 137.815L262.495 152H315.184Z" fill="#082746"/>
<path d="M281.656 67.7415L280.98 73.5958L281.205 78.0991L289.537 78.9998L293.139 74.4965L292.464 67.7415C293.837 66.957 294.868 64.8058 295.111 61.4368C295.58 61.2867 296.517 60.5812 296.517 58.96C296.517 57.3388 295.49 56.7834 294.976 56.7083C294.245 51.2427 291.41 49.2778 286.609 49.2778C282.007 49.2778 279.512 52.2878 278.755 56.7083C278.221 56.6333 277.152 56.9785 277.152 58.96C277.152 60.9415 278.112 61.4368 278.592 61.4368C279.032 65.2542 280.991 67.2098 281.656 67.7415Z" fill="#EFCB96"/>
<path fill-rule="evenodd" clip-rule="evenodd" d="M260.265 136.192C262.516 140.695 278.503 140.695 287.96 140.695C295.499 140.695 302.933 140.275 307.46 139.075C309.051 140.926 315.029 142.916 316.974 142.722C319.226 142.497 328.008 119.079 328.233 113.675C328.458 108.271 321.478 84.4037 309.769 77.1984C309.752 77.1888 309.735 77.1794 309.718 77.1702C309.71 77.1042 309.702 77.0385 309.694 76.9732C304.029 72.914 297.911 71.7105 294.265 71.7943C294.265 73.2954 292.869 76.2977 287.285 76.2977C281.7 76.2977 280.455 73.2954 280.304 71.7943C278.128 71.8548 272.416 72.6068 267.358 74.9683C264.116 76.2076 260.622 78.3187 258.241 81.7481C254.8 86.7025 253.379 91.0682 252.433 93.971C251.832 95.8175 251.423 97.072 250.81 97.5097C249.985 98.0993 246.813 94.9835 243.655 91.8817L243.655 91.8817C240.783 89.0607 237.923 86.2514 236.85 86.2514C234.599 86.2514 229.42 90.7547 229.42 93.4567C229.42 96.1587 241.804 119.126 245.407 121.603C248.896 124.002 257.011 124.077 259.359 121.829C259.433 129.427 259.772 135.207 260.265 136.192Z" fill="#1976D2"/>
<path d="M277.377 52.8804C277.017 55.042 277.378 58.0593 278.278 59.1851L280.079 55.3573C280.62 55.7175 283.157 55.8076 284.132 55.8076C287.915 55.6275 290.662 53.4809 291.563 52.4301C291.743 54.0513 294.19 58.3595 295.166 60.3109C296.367 58.5096 297.147 53.7811 296.066 49.2778C294.986 44.7744 292.013 44.5493 290.212 44.9996C285.258 41.1718 279.629 41.6221 276.927 45.4499C274.766 48.5122 276.026 51.6796 277.377 52.8804Z" fill="#082746"/>
<path d="M260.244 93.9072C259.569 102.464 259.343 115.974 259.343 121.828C258.623 122.548 257.092 122.879 256.416 122.954C257.677 120.072 259.343 102.464 260.244 93.9072Z" fill="#082746"/>
<path d="M305.484 143.449C305.59 142.241 306.021 142.111 307.485 140.728C307.792 140.438 308.057 140.156 308.282 139.892C309.765 140.997 313.724 142.193 315.518 142.653C315.614 145.154 313.626 149.263 312.784 149.713C311.771 150.254 307.952 149.29 306.98 148.407C306.203 147.701 306.89 145.769 307.363 144.999C306.852 144.604 305.399 144.415 305.484 143.449Z" fill="#EFCB96"/>
<path d="M309.769 116.377C309.589 112.955 307.443 104.744 306.392 101.066C307.968 105.119 312.021 111.874 312.021 116.377C312.021 119.98 308.719 132.289 307.067 137.993C308.043 132.214 309.95 119.8 309.769 116.377Z" fill="#082746"/>
<path d="M258.668 122.278C253.083 117.595 244.482 115.973 240.879 115.748C241.48 117.475 243.762 121.287 248.085 122.728C252.408 124.17 256.941 123.029 258.668 122.278Z" fill="#082746"/>
<path d="M286.813 69.5892C283.931 69.5892 282.16 68.3883 281.635 67.7878L281.409 70.0395C286.453 72.9216 291.017 71.2404 292.668 70.0395L292.443 67.7878C291.767 68.3883 289.696 69.5892 286.813 69.5892Z" fill="#082746"/>
<path d="M183.246 42.2082L181.196 44.9238C181.072 45.0891 180.868 45.1686 180.669 45.1299L178.136 44.6389C177.591 44.5332 177.262 45.2419 177.683 45.6156L179.674 47.3847C179.819 47.5138 179.888 47.7127 179.854 47.9079L179.355 50.8249C179.261 51.3733 179.914 51.7127 180.283 51.3077L182.328 49.066C182.448 48.9344 182.622 48.8708 182.795 48.8952L185.162 49.2287C185.695 49.3038 185.997 48.6164 185.591 48.2504L183.831 46.6613C183.69 46.5337 183.623 46.3396 183.653 46.1481L184.208 42.6441C184.299 42.071 183.591 41.7505 183.246 42.2082Z" fill="#1976D2"/>
<path d="M179.589 71.2333L178.754 72.2634C178.703 72.3261 178.62 72.3562 178.539 72.3416L177.507 72.1553C177.285 72.1152 177.151 72.384 177.323 72.5258L178.134 73.1968C178.193 73.2458 178.221 73.3212 178.207 73.3953L178.004 74.5017C177.965 74.7097 178.231 74.8385 178.382 74.6848L179.215 73.8346C179.264 73.7846 179.335 73.7605 179.405 73.7698L180.369 73.8963C180.587 73.9247 180.71 73.664 180.544 73.5252L179.827 72.9224C179.77 72.874 179.742 72.8004 179.755 72.7277L179.981 71.3986C180.018 71.1813 179.729 71.0597 179.589 71.2333Z" fill="#1976D2"/>
<path d="M176.746 122.621C172.807 130.227 179.283 144.14 183.362 150.756C183.61 151.157 184.049 151.396 184.52 151.396H190.772C191.611 151.396 192.255 150.638 192.126 149.809C188.098 123.882 178.122 120.385 176.746 122.621Z" fill="white"/>
<path fill-rule="evenodd" clip-rule="evenodd" d="M177.145 122.85C175.277 126.479 175.858 131.692 177.486 136.923C179.109 142.133 181.729 147.23 183.754 150.515C183.915 150.776 184.204 150.936 184.52 150.936H190.772C191.327 150.936 191.757 150.433 191.671 149.88C189.664 136.962 186.184 129.695 183.087 125.947C181.536 124.071 180.099 123.097 179.01 122.714C177.894 122.322 177.32 122.585 177.145 122.85ZM183.796 125.361C187.038 129.284 190.56 136.73 192.581 149.739C192.753 150.844 191.896 151.856 190.772 151.856H184.52C183.894 151.856 183.304 151.538 182.971 150.998C180.916 147.666 178.259 142.499 176.608 137.197C174.966 131.924 174.278 126.386 176.337 122.41L176.345 122.395L176.354 122.38C176.876 121.531 178.065 121.407 179.315 121.846C180.61 122.301 182.177 123.401 183.796 125.361Z" fill="#1976D2"/>
<path d="M188.581 107.937C179.687 113.113 183.777 137.628 187.172 150.217C187.333 150.814 187.876 151.22 188.494 151.22H193.146C193.81 151.22 194.382 150.743 194.498 150.089C198.893 125.48 195.284 105.68 188.783 107.845C188.714 107.868 188.644 107.901 188.581 107.937Z" fill="#1976D2"/>
<path d="M210.082 124.2C200.75 124.857 193.254 140.438 190.129 149.62C189.83 150.499 190.493 151.396 191.421 151.396H196.463C196.762 151.396 197.051 151.301 197.287 151.118C208.318 142.569 215.809 124.2 210.082 124.2Z" fill="white"/>
<path fill-rule="evenodd" clip-rule="evenodd" d="M210.098 124.661C207.896 124.82 205.772 125.859 203.759 127.514C201.742 129.172 199.861 131.429 198.16 133.97C194.759 139.051 192.119 145.201 190.565 149.769C190.371 150.339 190.797 150.936 191.421 150.936H196.463C196.664 150.936 196.853 150.872 197.005 150.755C202.447 146.537 207.036 139.875 209.549 134.265C210.808 131.456 211.524 128.956 211.591 127.187C211.624 126.298 211.49 125.655 211.238 125.249C211.009 124.88 210.659 124.664 210.098 124.661ZM210.389 134.641C207.83 140.353 203.158 147.15 197.569 151.482C197.249 151.73 196.859 151.856 196.463 151.856H191.421C190.188 151.856 189.29 150.66 189.694 149.472C191.264 144.858 193.935 138.627 197.395 133.458C199.126 130.873 201.064 128.538 203.175 126.803C205.285 125.068 207.591 123.915 210.05 123.741L210.066 123.74H210.082C210.943 123.74 211.608 124.098 212.02 124.764C212.412 125.396 212.546 126.254 212.51 127.221C212.438 129.164 211.666 131.79 210.389 134.641Z" fill="#1976D2"/>
<path fill-rule="evenodd" clip-rule="evenodd" d="M179.939 126.231C181.059 127.962 182.314 130.82 183.539 134.037C184.335 136.128 185.125 138.384 185.862 140.608L187.01 137.043L187.886 137.325L186.349 142.096C187.491 145.62 188.475 148.951 189.12 151.273L188.233 151.519C187.934 150.442 187.561 149.145 187.133 147.711L184.067 146.008L184.514 145.204L186.751 146.447C186.345 145.113 185.9 143.692 185.428 142.239C184.598 139.68 183.687 137.028 182.767 134.595L178.398 133.597L178.603 132.7L182.369 133.56C181.249 130.689 180.139 128.234 179.167 126.731L179.939 126.231Z" fill="#1976D2"/>
<path fill-rule="evenodd" clip-rule="evenodd" d="M190.245 119.41C190.086 115.969 189.893 113.276 189.655 112.009L188.751 112.179C189.002 113.518 189.211 116.648 189.381 120.71C189.476 123.008 189.559 125.591 189.629 128.295L186.551 125.109L185.889 125.748L189.663 129.655C189.729 132.364 189.783 135.164 189.827 137.893C189.907 142.908 189.952 147.683 189.971 151.223L190.891 151.218C190.873 147.713 190.828 142.999 190.749 138.04L193.778 134.132L193.05 133.568L190.725 136.569C190.684 134.196 190.636 131.79 190.579 129.453C190.504 126.385 190.414 123.436 190.307 120.839L192.901 117.462L192.172 116.902L190.245 119.41Z" fill="white"/>
<path fill-rule="evenodd" clip-rule="evenodd" d="M204.536 132.355C206.323 130.113 208.024 128.284 209.479 127.201L208.93 126.463C207.212 127.741 205.234 129.941 203.226 132.534C202.286 133.749 201.334 135.056 200.394 136.405V133.85H199.474V137.744C198.233 139.575 197.025 141.452 195.904 143.258C194.027 146.281 192.393 149.106 191.256 151.174L192.063 151.618C193.168 149.607 194.749 146.87 196.569 143.932L200.837 143.431L200.729 142.517L197.192 142.932C198.186 141.35 199.239 139.728 200.315 138.144C201.471 136.443 202.653 134.788 203.816 133.276H207.977V132.355H204.536Z" fill="#1976D2"/>
</g>
<defs>
<linearGradient id="paint0_linear_2_525" x1="83.3253" y1="5.12049" x2="49.6202" y2="86.7022" gradientUnits="userSpaceOnUse">
<stop stop-color="#EBFAF1" stop-opacity="0.34"/>
<stop offset="0.0001" stop-color="white" stop-opacity="0.34"/>
<stop offset="1" stop-color="#EBFAF1" stop-opacity="0"/>
<stop offset="1" stop-color="#EBFAF1" stop-opacity="0"/>
</linearGradient>
<linearGradient id="paint1_linear_2_525" x1="90" y1="-6.4759" x2="48.2663" y2="87.4513" gradientUnits="userSpaceOnUse">
<stop stop-color="#EBFAF1" stop-opacity="0.37"/>
<stop offset="1" stop-color="#EBFAF1" stop-opacity="0"/>
</linearGradient>
</defs>
</svg>
