<svg width="56" height="79" viewBox="0 0 56 79" fill="none" xmlns="http://www.w3.org/2000/svg">
<rect width="56" height="56" rx="16" fill="#FAFAFA"/>
<path fill-rule="evenodd" clip-rule="evenodd" d="M37.3333 25.3333C36.597 25.3333 36 25.9302 36 26.6666C36 27.403 36.597 28 37.3333 28C38.0697 28 38.6667 27.403 38.6667 26.6666C38.6667 25.9302 38.0697 25.3333 37.3333 25.3333ZM33.3333 26.6666C33.3333 24.4575 35.1242 22.6666 37.3333 22.6666C39.5425 22.6666 41.3333 24.4575 41.3333 26.6666C41.3333 28.8758 39.5425 30.6666 37.3333 30.6666C35.1242 30.6666 33.3333 28.8758 33.3333 26.6666Z" fill="#1976D2"/>
<path fill-rule="evenodd" clip-rule="evenodd" d="M18.6667 25.3333C17.9303 25.3333 17.3334 25.9302 17.3334 26.6666C17.3334 27.403 17.9303 28 18.6667 28C19.4031 28 20 27.403 20 26.6666C20 25.9302 19.4031 25.3333 18.6667 25.3333ZM14.6667 26.6666C14.6667 24.4575 16.4575 22.6666 18.6667 22.6666C20.8758 22.6666 22.6667 24.4575 22.6667 26.6666C22.6667 28.8758 20.8758 30.6666 18.6667 30.6666C16.4575 30.6666 14.6667 28.8758 14.6667 26.6666Z" fill="#1976D2"/>
<path fill-rule="evenodd" clip-rule="evenodd" d="M32 33.3333C32 30.3878 34.3878 28 37.3333 28C40.2789 28 42.6667 30.3878 42.6667 33.3333V34.6667C42.6667 36.1394 41.4728 37.3333 40 37.3333H34.6667C33.1939 37.3333 32 36.1394 32 34.6667V33.3333ZM37.3333 30.6667C35.8606 30.6667 34.6667 31.8606 34.6667 33.3333V34.6667H40V33.3333C40 31.8606 38.8061 30.6667 37.3333 30.6667Z" fill="#1976D2"/>
<path fill-rule="evenodd" clip-rule="evenodd" d="M13.3333 33.3333C13.3333 30.3878 15.7212 28 18.6667 28C21.6122 28 24 30.3878 24 33.3333V34.6667C24 36.1394 22.8061 37.3333 21.3333 37.3333H16C14.5273 37.3333 13.3333 36.1394 13.3333 34.6667V33.3333ZM18.6667 30.6667C17.1939 30.6667 16 31.8606 16 33.3333V34.6667H21.3333V33.3333C21.3333 31.8606 20.1394 30.6667 18.6667 30.6667Z" fill="#1976D2"/>
<path fill-rule="evenodd" clip-rule="evenodd" d="M28 21.3333C26.8954 21.3333 26 22.2287 26 23.3333C26 24.4379 26.8954 25.3333 28 25.3333C29.1046 25.3333 30 24.4379 30 23.3333C30 22.2287 29.1046 21.3333 28 21.3333ZM23.3333 23.3333C23.3333 20.756 25.4227 18.6666 28 18.6666C30.5773 18.6666 32.6667 20.756 32.6667 23.3333C32.6667 25.9106 30.5773 28 28 28C25.4227 28 23.3333 25.9106 23.3333 23.3333Z" fill="#77E3FF"/>
<path fill-rule="evenodd" clip-rule="evenodd" d="M21.3333 30.6666C21.3333 27.7211 23.7212 25.3333 26.6667 25.3333H29.3333C32.2789 25.3333 34.6667 27.7211 34.6667 30.6666V34.6666C34.6667 36.1394 33.4728 37.3333 32 37.3333H24C22.5273 37.3333 21.3333 36.1394 21.3333 34.6666V30.6666ZM26.6667 27.9999C25.1939 27.9999 24 29.1938 24 30.6666V34.6666H32V30.6666C32 29.1938 30.8061 27.9999 29.3333 27.9999H26.6667Z" fill="#77E3FF"/>
<path d="M3.89 68.05V75H2.75V68.05H3.89ZM8.26672 69.4C8.70005 69.4 9.08672 69.49 9.42672 69.67C9.77339 69.85 10.0434 70.1167 10.2367 70.47C10.4301 70.8233 10.5267 71.25 10.5267 71.75V75H9.39672V71.92C9.39672 71.4267 9.27339 71.05 9.02672 70.79C8.78005 70.5233 8.44339 70.39 8.01672 70.39C7.59005 70.39 7.25005 70.5233 6.99672 70.79C6.75005 71.05 6.62672 71.4267 6.62672 71.92V75H5.48672V69.49H6.62672V70.12C6.81339 69.8933 7.05005 69.7167 7.33672 69.59C7.63005 69.4633 7.94005 69.4 8.26672 69.4ZM13.4109 70.42V73.47C13.4109 73.6767 13.4575 73.8267 13.5509 73.92C13.6509 74.0067 13.8175 74.05 14.0509 74.05H14.7509V75H13.8509C13.3375 75 12.9442 74.88 12.6709 74.64C12.3975 74.4 12.2609 74.01 12.2609 73.47V70.42H11.6109V69.49H12.2609V68.12H13.4109V69.49H14.7509V70.42H13.4109ZM20.9516 72.11C20.9516 72.3167 20.9382 72.5033 20.9116 72.67H16.7016C16.7349 73.11 16.8982 73.4633 17.1916 73.73C17.4849 73.9967 17.8449 74.13 18.2716 74.13C18.8849 74.13 19.3182 73.8733 19.5716 73.36H20.8016C20.6349 73.8667 20.3316 74.2833 19.8916 74.61C19.4582 74.93 18.9182 75.09 18.2716 75.09C17.7449 75.09 17.2716 74.9733 16.8516 74.74C16.4382 74.5 16.1116 74.1667 15.8716 73.74C15.6382 73.3067 15.5216 72.8067 15.5216 72.24C15.5216 71.6733 15.6349 71.1767 15.8616 70.75C16.0949 70.3167 16.4182 69.9833 16.8316 69.75C17.2516 69.5167 17.7316 69.4 18.2716 69.4C18.7916 69.4 19.2549 69.5133 19.6616 69.74C20.0682 69.9667 20.3849 70.2867 20.6116 70.7C20.8382 71.1067 20.9516 71.5767 20.9516 72.11ZM19.7616 71.75C19.7549 71.33 19.6049 70.9933 19.3116 70.74C19.0182 70.4867 18.6549 70.36 18.2216 70.36C17.8282 70.36 17.4916 70.4867 17.2116 70.74C16.9316 70.9867 16.7649 71.3233 16.7116 71.75H19.7616ZM23.3134 70.29C23.4801 70.01 23.7001 69.7933 23.9734 69.64C24.2534 69.48 24.5834 69.4 24.9634 69.4V70.58H24.6734C24.2268 70.58 23.8868 70.6933 23.6534 70.92C23.4268 71.1467 23.3134 71.54 23.3134 72.1V75H22.1734V69.49H23.3134V70.29ZM28.8913 69.4C29.3247 69.4 29.7113 69.49 30.0513 69.67C30.398 69.85 30.668 70.1167 30.8613 70.47C31.0547 70.8233 31.1513 71.25 31.1513 71.75V75H30.0213V71.92C30.0213 71.4267 29.898 71.05 29.6513 70.79C29.4047 70.5233 29.068 70.39 28.6413 70.39C28.2147 70.39 27.8747 70.5233 27.6213 70.79C27.3747 71.05 27.2513 71.4267 27.2513 71.92V75H26.1113V69.49H27.2513V70.12C27.438 69.8933 27.6747 69.7167 27.9613 69.59C28.2547 69.4633 28.5647 69.4 28.8913 69.4ZM34.7055 75.09C34.2721 75.09 33.8821 75.0133 33.5355 74.86C33.1955 74.7 32.9255 74.4867 32.7255 74.22C32.5255 73.9467 32.4188 73.6433 32.4055 73.31H33.5855C33.6055 73.5433 33.7155 73.74 33.9155 73.9C34.1221 74.0533 34.3788 74.13 34.6855 74.13C35.0055 74.13 35.2521 74.07 35.4255 73.95C35.6055 73.8233 35.6955 73.6633 35.6955 73.47C35.6955 73.2633 35.5955 73.11 35.3955 73.01C35.2021 72.91 34.8921 72.8 34.4655 72.68C34.0521 72.5667 33.7155 72.4567 33.4555 72.35C33.1955 72.2433 32.9688 72.08 32.7755 71.86C32.5888 71.64 32.4955 71.35 32.4955 70.99C32.4955 70.6967 32.5821 70.43 32.7555 70.19C32.9288 69.9433 33.1755 69.75 33.4955 69.61C33.8221 69.47 34.1955 69.4 34.6155 69.4C35.2421 69.4 35.7455 69.56 36.1255 69.88C36.5121 70.1933 36.7188 70.6233 36.7455 71.17H35.6055C35.5855 70.9233 35.4855 70.7267 35.3055 70.58C35.1255 70.4333 34.8821 70.36 34.5755 70.36C34.2755 70.36 34.0455 70.4167 33.8855 70.53C33.7255 70.6433 33.6455 70.7933 33.6455 70.98C33.6455 71.1267 33.6988 71.25 33.8055 71.35C33.9121 71.45 34.0421 71.53 34.1955 71.59C34.3488 71.6433 34.5755 71.7133 34.8755 71.8C35.2755 71.9067 35.6021 72.0167 35.8555 72.13C36.1155 72.2367 36.3388 72.3967 36.5255 72.61C36.7121 72.8233 36.8088 73.1067 36.8155 73.46C36.8155 73.7733 36.7288 74.0533 36.5555 74.3C36.3821 74.5467 36.1355 74.74 35.8155 74.88C35.5021 75.02 35.1321 75.09 34.7055 75.09ZM40.9973 69.4C41.4173 69.4 41.7906 69.49 42.1173 69.67C42.4506 69.85 42.7106 70.1167 42.8973 70.47C43.0906 70.8233 43.1873 71.25 43.1873 71.75V75H42.0573V71.92C42.0573 71.4267 41.9339 71.05 41.6873 70.79C41.4406 70.5233 41.1039 70.39 40.6773 70.39C40.2506 70.39 39.9106 70.5233 39.6573 70.79C39.4106 71.05 39.2873 71.4267 39.2873 71.92V75H38.1473V67.6H39.2873V70.13C39.4806 69.8967 39.7239 69.7167 40.0173 69.59C40.3173 69.4633 40.6439 69.4 40.9973 69.4ZM45.3214 68.76C45.1147 68.76 44.9414 68.69 44.8014 68.55C44.6614 68.41 44.5914 68.2367 44.5914 68.03C44.5914 67.8233 44.6614 67.65 44.8014 67.51C44.9414 67.37 45.1147 67.3 45.3214 67.3C45.5214 67.3 45.6914 67.37 45.8314 67.51C45.9714 67.65 46.0414 67.8233 46.0414 68.03C46.0414 68.2367 45.9714 68.41 45.8314 68.55C45.6914 68.69 45.5214 68.76 45.3214 68.76ZM45.8814 69.49V75H44.7414V69.49H45.8814ZM48.6181 70.3C48.8115 70.0467 49.0748 69.8333 49.4081 69.66C49.7415 69.4867 50.1181 69.4 50.5381 69.4C51.0181 69.4 51.4548 69.52 51.8481 69.76C52.2481 69.9933 52.5615 70.3233 52.7881 70.75C53.0148 71.1767 53.1281 71.6667 53.1281 72.22C53.1281 72.7733 53.0148 73.27 52.7881 73.71C52.5615 74.1433 52.2481 74.4833 51.8481 74.73C51.4548 74.97 51.0181 75.09 50.5381 75.09C50.1181 75.09 49.7448 75.0067 49.4181 74.84C49.0915 74.6667 48.8248 74.4533 48.6181 74.2V77.62H47.4781V69.49H48.6181V70.3ZM51.9681 72.22C51.9681 71.84 51.8881 71.5133 51.7281 71.24C51.5748 70.96 51.3681 70.75 51.1081 70.61C50.8548 70.4633 50.5815 70.39 50.2881 70.39C50.0015 70.39 49.7281 70.4633 49.4681 70.61C49.2148 70.7567 49.0081 70.97 48.8481 71.25C48.6948 71.53 48.6181 71.86 48.6181 72.24C48.6181 72.62 48.6948 72.9533 48.8481 73.24C49.0081 73.52 49.2148 73.7333 49.4681 73.88C49.7281 74.0267 50.0015 74.1 50.2881 74.1C50.5815 74.1 50.8548 74.0267 51.1081 73.88C51.3681 73.7267 51.5748 73.5067 51.7281 73.22C51.8881 72.9333 51.9681 72.6 51.9681 72.22Z" fill="#05182A"/>
</svg>
