<svg width="56" height="79" viewBox="0 0 56 79" fill="none" xmlns="http://www.w3.org/2000/svg">
<rect width="56" height="56" rx="16" fill="#FAFAFA"/>
<path fill-rule="evenodd" clip-rule="evenodd" d="M18.6667 40.0001V24.6667H16V41.3334C16 42.0698 16.597 42.6667 17.3333 42.6667H38.6667C39.403 42.6667 40 42.0698 40 41.3334V24.6667H37.3333V40.0001H18.6667Z" fill="#1976D2"/>
<path fill-rule="evenodd" clip-rule="evenodd" d="M14.6667 40H41.3334V42.6667H14.6667V40Z" fill="#1976D2"/>
<path fill-rule="evenodd" clip-rule="evenodd" d="M26.4192 13.7712C27.3922 13.1874 28.6078 13.1874 29.5808 13.7712L41.1747 20.7276C42.6298 21.6006 43.1016 23.4879 42.2286 24.9429C41.3555 26.398 39.4683 26.8698 38.0132 25.9968L28 19.9888L17.9868 25.9968C16.5317 26.8698 14.6445 26.398 13.7714 24.9429C12.8984 23.4879 13.3702 21.6006 14.8253 20.7276L26.4192 13.7712ZM28.2088 16.0579C28.0803 15.9808 27.9197 15.9808 27.7912 16.0579L16.1973 23.0142C16.0051 23.1295 15.9428 23.3788 16.0581 23.571C16.1734 23.7631 16.4226 23.8254 16.6148 23.7101L27.314 17.2906C27.7362 17.0373 28.2638 17.0373 28.686 17.2906L39.3852 23.7101C39.5774 23.8254 39.8266 23.7631 39.9419 23.571C40.0572 23.3788 39.9949 23.1295 39.8027 23.0142L28.2088 16.0579L28.8948 14.9145L28.2088 16.0579Z" fill="#1976D2"/>
<path fill-rule="evenodd" clip-rule="evenodd" d="M29.4614 31.9192C28.6803 31.1382 27.414 31.1382 26.6329 31.9192L24.7473 30.0336C26.5698 28.2111 29.5245 28.2111 31.347 30.0336L29.4614 31.9192Z" fill="#77E3FF"/>
<path fill-rule="evenodd" clip-rule="evenodd" d="M31.8186 29.5621C29.7358 27.4793 26.3589 27.4793 24.2761 29.5621L22.3905 27.6765C25.5147 24.5523 30.58 24.5523 33.7042 27.6765L31.8186 29.5621Z" fill="#77E3FF"/>
<path fill-rule="evenodd" clip-rule="evenodd" d="M26.7136 34.6667V33.3334H29.3802V34.6667H26.7136Z" fill="#77E3FF"/>
<path d="M12.36 75L10.76 72.22H9.89V75H8.75V68.05H11.15C11.6833 68.05 12.1333 68.1433 12.5 68.33C12.8733 68.5167 13.15 68.7667 13.33 69.08C13.5167 69.3933 13.61 69.7433 13.61 70.13C13.61 70.5833 13.4767 70.9967 13.21 71.37C12.95 71.7367 12.5467 71.9867 12 72.12L13.72 75H12.36ZM9.89 71.31H11.15C11.5767 71.31 11.8967 71.2033 12.11 70.99C12.33 70.7767 12.44 70.49 12.44 70.13C12.44 69.77 12.3333 69.49 12.12 69.29C11.9067 69.0833 11.5833 68.98 11.15 68.98H9.89V71.31ZM20.2184 72.11C20.2184 72.3167 20.205 72.5033 20.1784 72.67H15.9684C16.0017 73.11 16.165 73.4633 16.4584 73.73C16.7517 73.9967 17.1117 74.13 17.5384 74.13C18.1517 74.13 18.585 73.8733 18.8384 73.36H20.0684C19.9017 73.8667 19.5984 74.2833 19.1584 74.61C18.725 74.93 18.185 75.09 17.5384 75.09C17.0117 75.09 16.5384 74.9733 16.1184 74.74C15.705 74.5 15.3784 74.1667 15.1384 73.74C14.905 73.3067 14.7884 72.8067 14.7884 72.24C14.7884 71.6733 14.9017 71.1767 15.1284 70.75C15.3617 70.3167 15.685 69.9833 16.0984 69.75C16.5184 69.5167 16.9984 69.4 17.5384 69.4C18.0584 69.4 18.5217 69.5133 18.9284 69.74C19.335 69.9667 19.6517 70.2867 19.8784 70.7C20.105 71.1067 20.2184 71.5767 20.2184 72.11ZM19.0284 71.75C19.0217 71.33 18.8717 70.9933 18.5784 70.74C18.285 70.4867 17.9217 70.36 17.4884 70.36C17.095 70.36 16.7584 70.4867 16.4784 70.74C16.1984 70.9867 16.0317 71.3233 15.9784 71.75H19.0284ZM28.1102 69.4C28.5436 69.4 28.9302 69.49 29.2702 69.67C29.6169 69.85 29.8869 70.1167 30.0802 70.47C30.2802 70.8233 30.3802 71.25 30.3802 71.75V75H29.2502V71.92C29.2502 71.4267 29.1269 71.05 28.8802 70.79C28.6336 70.5233 28.2969 70.39 27.8702 70.39C27.4436 70.39 27.1036 70.5233 26.8502 70.79C26.6036 71.05 26.4802 71.4267 26.4802 71.92V75H25.3502V71.92C25.3502 71.4267 25.2269 71.05 24.9802 70.79C24.7336 70.5233 24.3969 70.39 23.9702 70.39C23.5436 70.39 23.2036 70.5233 22.9502 70.79C22.7036 71.05 22.5802 71.4267 22.5802 71.92V75H21.4402V69.49H22.5802V70.12C22.7669 69.8933 23.0036 69.7167 23.2902 69.59C23.5769 69.4633 23.8836 69.4 24.2102 69.4C24.6502 69.4 25.0436 69.4933 25.3902 69.68C25.7369 69.8667 26.0036 70.1367 26.1902 70.49C26.3569 70.1567 26.6169 69.8933 26.9702 69.7C27.3236 69.5 27.7036 69.4 28.1102 69.4ZM34.3209 75.09C33.8009 75.09 33.3309 74.9733 32.9109 74.74C32.4909 74.5 32.1609 74.1667 31.9209 73.74C31.6809 73.3067 31.5609 72.8067 31.5609 72.24C31.5609 71.68 31.6842 71.1833 31.9309 70.75C32.1775 70.3167 32.5142 69.9833 32.9409 69.75C33.3675 69.5167 33.8442 69.4 34.3709 69.4C34.8975 69.4 35.3742 69.5167 35.8009 69.75C36.2275 69.9833 36.5642 70.3167 36.8109 70.75C37.0575 71.1833 37.1809 71.68 37.1809 72.24C37.1809 72.8 37.0542 73.2967 36.8009 73.73C36.5475 74.1633 36.2009 74.5 35.7609 74.74C35.3275 74.9733 34.8475 75.09 34.3209 75.09ZM34.3209 74.1C34.6142 74.1 34.8875 74.03 35.1409 73.89C35.4009 73.75 35.6109 73.54 35.7709 73.26C35.9309 72.98 36.0109 72.64 36.0109 72.24C36.0109 71.84 35.9342 71.5033 35.7809 71.23C35.6275 70.95 35.4242 70.74 35.1709 70.6C34.9175 70.46 34.6442 70.39 34.3509 70.39C34.0575 70.39 33.7842 70.46 33.5309 70.6C33.2842 70.74 33.0875 70.95 32.9409 71.23C32.7942 71.5033 32.7209 71.84 32.7209 72.24C32.7209 72.8333 32.8709 73.2933 33.1709 73.62C33.4775 73.94 33.8609 74.1 34.3209 74.1ZM39.7378 70.42V73.47C39.7378 73.6767 39.7845 73.8267 39.8778 73.92C39.9778 74.0067 40.1445 74.05 40.3778 74.05H41.0778V75H40.1778C39.6645 75 39.2711 74.88 38.9978 74.64C38.7245 74.4 38.5878 74.01 38.5878 73.47V70.42H37.9378V69.49H38.5878V68.12H39.7378V69.49H41.0778V70.42H39.7378ZM47.2785 72.11C47.2785 72.3167 47.2652 72.5033 47.2385 72.67H43.0285C43.0618 73.11 43.2252 73.4633 43.5185 73.73C43.8118 73.9967 44.1718 74.13 44.5985 74.13C45.2118 74.13 45.6452 73.8733 45.8985 73.36H47.1285C46.9618 73.8667 46.6585 74.2833 46.2185 74.61C45.7852 74.93 45.2452 75.09 44.5985 75.09C44.0718 75.09 43.5985 74.9733 43.1785 74.74C42.7652 74.5 42.4385 74.1667 42.1985 73.74C41.9652 73.3067 41.8485 72.8067 41.8485 72.24C41.8485 71.6733 41.9618 71.1767 42.1885 70.75C42.4218 70.3167 42.7452 69.9833 43.1585 69.75C43.5785 69.5167 44.0585 69.4 44.5985 69.4C45.1185 69.4 45.5818 69.5133 45.9885 69.74C46.3952 69.9667 46.7118 70.2867 46.9385 70.7C47.1652 71.1067 47.2785 71.5767 47.2785 72.11ZM46.0885 71.75C46.0818 71.33 45.9318 70.9933 45.6385 70.74C45.3452 70.4867 44.9818 70.36 44.5485 70.36C44.1552 70.36 43.8185 70.4867 43.5385 70.74C43.2585 70.9867 43.0918 71.3233 43.0385 71.75H46.0885Z" fill="#05182A"/>
</svg>
