<svg width="324" height="277" viewBox="0 0 324 277" fill="none" xmlns="http://www.w3.org/2000/svg">
<g filter="url(#filter0_d_2_699)">
<path d="M101.687 267.216H185.855H221C245.45 267.216 268.32 255.135 282.104 234.94L302.875 204.509C313.047 189.606 309.977 169.376 295.843 158.162C283.488 148.36 279.381 131.411 285.877 117.039L290.196 107.483C298.867 88.3004 293.983 65.7039 278.165 51.8147L270.211 44.8302C248.171 25.478 215.603 24.1719 192.084 41.6969L169.139 58.7947C155.189 69.1902 137.355 72.8819 120.424 68.8787C94.9934 62.8657 68.6432 74.3389 55.7183 97.0524L38.179 127.875C30.6747 141.062 34.3582 157.789 46.7077 166.604L58.9062 175.311C71.2509 184.122 69.9779 202.854 56.5546 209.914C42.599 217.254 41.9196 236.988 55.3375 245.27L81.7047 261.545C87.7105 265.253 94.6291 267.216 101.687 267.216Z" fill="#E7F0F9"/>
<path d="M97.6633 11.9374C97.6633 5.85167 102.597 0.918213 108.683 0.918213H234.045C240.13 0.918213 245.064 5.85168 245.064 11.9374V257.062C245.064 263.148 240.13 268.082 234.045 268.082H108.683C102.597 268.082 97.6633 263.148 97.6633 257.062V11.9374Z" fill="white"/>
<path fill-rule="evenodd" clip-rule="evenodd" d="M96.7451 11.9375C96.7451 5.34458 102.09 0 108.683 0H234.045C240.638 0 245.982 5.34459 245.982 11.9375V257.063C245.982 263.655 240.638 269 234.045 269H108.683C102.09 269 96.7451 263.655 96.7451 257.063V11.9375ZM108.683 1.83654C103.104 1.83654 98.5816 6.35887 98.5816 11.9375V257.063C98.5816 262.641 103.104 267.163 108.683 267.163H234.045C239.623 267.163 244.146 262.641 244.146 257.063V11.9375C244.146 6.35888 239.623 1.83654 234.045 1.83654H108.683Z" fill="#05182A"/>
<path d="M142.054 9.87511L137.277 0.917725H205.45L199.833 10.2783C198.174 13.0442 195.185 14.7365 191.959 14.7365H150.157C146.765 14.7365 143.65 12.8674 142.054 9.87511Z" fill="#05182A"/>
<path d="M243.256 6.44532H98.5314C103.322 1.6548 107.897 0.764256 109.586 0.917798H232.201C238.097 0.917798 242.028 4.60281 243.256 6.44532Z" fill="#05182A"/>
<path d="M243.186 262.843H99.5411C104.52 267.711 107.397 268.616 109.152 268.46H233.575C239.703 268.46 241.91 264.715 243.186 262.843Z" fill="#05182A"/>
<path d="M123.375 58.7528C123.375 57.2314 124.608 55.998 126.13 55.998H173.196C174.717 55.998 175.951 57.2314 175.951 58.7528V58.8764C175.951 60.3978 174.717 61.6312 173.196 61.6312H126.13C124.608 61.6312 123.375 60.3978 123.375 58.8764V58.7528Z" fill="#1976D2"/>
<path d="M123.375 39.4692C123.375 37.9477 124.608 36.7144 126.13 36.7144H146.332C147.853 36.7144 149.086 37.9477 149.086 39.4692C149.086 40.9906 147.853 42.224 146.332 42.224H126.13C124.608 42.224 123.375 40.9906 123.375 39.4692Z" fill="#1976D2"/>
<path fill-rule="evenodd" clip-rule="evenodd" d="M234.716 14.0459V21.5568H232.88V14.0459H234.716Z" fill="#05182A"/>
<path fill-rule="evenodd" clip-rule="evenodd" d="M230.022 14.9849V21.5569H228.185V14.9849H230.022Z" fill="#05182A"/>
<path fill-rule="evenodd" clip-rule="evenodd" d="M225.327 16.8625V21.5568H223.491V16.8625H225.327Z" fill="#05182A"/>
<path fill-rule="evenodd" clip-rule="evenodd" d="M220.633 18.7402V21.5568H218.797V18.7402H220.633Z" fill="#05182A"/>
<path d="M130.721 224.041C130.721 222.52 131.954 221.286 133.476 221.286H208.774C210.295 221.286 211.528 222.52 211.528 224.041V236.897C211.528 238.418 210.295 239.651 208.774 239.651H133.476C131.954 239.651 130.721 238.418 130.721 236.897V224.041Z" fill="#E7F0F9"/>
<path d="M219.793 193.112V86.0989C219.793 83.5632 217.737 81.5076 215.202 81.5076H142.994C141.777 81.5076 140.609 81.9913 139.748 82.8523L124.72 97.8806C123.859 98.7417 123.375 99.9095 123.375 101.127V193.112C123.375 195.648 125.43 197.704 127.966 197.704H215.202C217.737 197.704 219.793 195.648 219.793 193.112Z" fill="white"/>
<path fill-rule="evenodd" clip-rule="evenodd" d="M139.099 82.2031C140.132 81.1698 141.533 80.5894 142.994 80.5894H215.202C218.244 80.5894 220.711 83.0561 220.711 86.099V193.112C220.711 196.155 218.244 198.622 215.202 198.622H127.966C124.923 198.622 122.457 196.155 122.457 193.112V101.127C122.457 99.666 123.037 98.2646 124.07 97.2314L124.712 97.8727L124.07 97.2314L139.099 82.2031ZM142.994 82.4259C142.02 82.4259 141.086 82.8129 140.397 83.5017L125.369 98.53C124.68 99.2189 124.293 100.153 124.293 101.127V193.112C124.293 195.141 125.938 196.786 127.966 196.786H215.202C217.23 196.786 218.875 195.141 218.875 193.112V86.099C218.875 84.0704 217.23 82.4259 215.202 82.4259H142.994Z" fill="#05182A"/>
<path d="M123.787 99.2254L141.505 81.5076V96.4706C141.505 97.9921 140.271 99.2254 138.75 99.2254H123.787Z" fill="#05182A"/>
<path fill-rule="evenodd" clip-rule="evenodd" d="M164.992 105.088H143.565V103.252H164.992V105.088ZM197.955 124.866H143.565V123.03H197.955V124.866ZM197.955 141.76H143.565V139.924H197.955V141.76ZM197.955 159.066H143.565V157.229H197.955V159.066ZM188.066 175.136H143.565V173.299H188.066V175.136Z" fill="#1976D2"/>
<path d="M319.152 121.67C319.152 137.241 306.529 149.864 290.959 149.864C285.581 149.864 280.555 148.358 276.279 145.745L268.401 148.54C266.775 149.116 265.15 147.68 265.522 145.996L267.453 137.243C264.491 132.781 262.765 127.427 262.765 121.67C262.765 106.1 275.388 93.4773 290.959 93.4773C306.529 93.4773 319.152 106.1 319.152 121.67Z" fill="white"/>
<path fill-rule="evenodd" clip-rule="evenodd" d="M290.959 94.2097C306.125 94.2097 318.419 106.504 318.419 121.671C318.419 136.837 306.125 149.131 290.959 149.131C285.72 149.131 280.825 147.665 276.661 145.121L276.364 144.939L268.156 147.85C267.073 148.234 265.989 147.277 266.237 146.154L268.235 137.097L268.063 136.838C265.178 132.492 263.498 127.279 263.498 121.671C263.498 106.504 275.792 94.2097 290.959 94.2097ZM319.884 121.671C319.884 105.695 306.934 92.7451 290.959 92.7451C274.984 92.7451 262.033 105.695 262.033 121.671C262.033 127.464 263.737 132.861 266.671 137.387L264.806 145.838C264.311 148.084 266.478 149.999 268.646 149.23L276.198 146.551C280.52 149.121 285.568 150.596 290.959 150.596C306.934 150.596 319.884 137.646 319.884 121.671Z" fill="#05182A"/>
<path fill-rule="evenodd" clip-rule="evenodd" d="M282.797 126.723C283.221 128.039 283.894 129.09 284.832 129.843L284.835 129.846C285.776 130.588 286.875 130.956 288.112 130.956C289.226 130.956 290.238 130.714 291.134 130.217C291.547 129.987 292.093 129.88 292.667 129.905C293.24 129.93 293.799 130.085 294.228 130.333L294.481 129.897L294.233 130.337C295.06 130.802 296 131.028 297.039 131.028C299.547 131.028 301.578 130.032 303.087 128.056C304.579 126.1 305.363 123.508 305.483 120.325C305.615 117.171 305.13 114.375 304.008 111.951C302.884 109.522 301.197 107.652 298.951 106.358C296.708 105.053 294.059 104.411 291.023 104.411C287.974 104.411 285.218 105.148 282.77 106.631C280.332 108.102 278.412 110.189 277.008 112.878L277.008 112.878C275.617 115.552 274.854 118.573 274.71 121.93L274.71 121.934C274.591 125.472 275.079 128.516 276.2 131.049C277.324 133.589 279.043 135.517 281.354 136.814C283.67 138.119 286.477 138.758 289.753 138.758C291.017 138.758 292.274 138.604 293.523 138.297C294.289 138.117 294.97 137.899 295.561 137.639C296.428 137.258 296.755 136.305 296.573 135.477C296.288 134.178 294.92 133.502 293.723 133.805C293.453 133.873 293.166 133.938 292.862 134.001L292.857 134.002C291.782 134.234 290.771 134.348 289.823 134.348C286.26 134.348 283.669 133.275 281.956 131.203L281.955 131.202C280.231 129.128 279.416 126.081 279.601 121.975C279.728 119.312 280.285 116.958 281.264 114.904C282.253 112.84 283.578 111.268 285.234 110.168L285.234 110.167C286.898 109.057 288.799 108.499 290.953 108.499C294.372 108.499 296.889 109.546 298.593 111.575L298.594 111.576C300.318 113.616 301.124 116.55 300.928 120.459L300.928 120.462L300.928 120.466C300.859 122.433 300.492 124.011 299.856 125.224L299.855 125.225C299.228 126.432 298.53 126.886 297.798 126.886C297.241 126.886 296.954 126.718 296.795 126.485C296.615 126.22 296.511 125.747 296.606 124.964L296.607 124.956L297.392 115.793C297.478 114.78 297.014 113.797 296.176 113.23L295.893 113.648L296.168 113.225C294.827 112.352 293.24 111.926 291.429 111.926C289.035 111.926 287.01 112.906 285.381 114.824C283.76 116.731 282.785 119.23 282.423 122.286L282.423 122.291L282.422 122.296C282.264 123.924 282.384 125.401 282.796 126.719L282.797 126.723ZM297.601 127.385C296.414 127.305 295.915 126.478 296.104 124.904L296.888 115.75C296.96 114.917 296.578 114.112 295.893 113.648C294.795 112.934 293.511 112.534 292.039 112.449C293.51 112.534 294.795 112.934 295.892 113.648C296.578 114.112 296.96 114.917 296.888 115.75L296.104 124.904C295.914 126.478 296.413 127.305 297.601 127.385ZM293.405 137.806L293.52 138.298L293.523 138.297L293.526 138.296L293.405 137.806ZM291.266 138.177C291.981 138.104 292.694 137.981 293.405 137.806C294.15 137.632 294.801 137.422 295.358 137.177C295.958 136.913 296.222 136.232 296.08 135.585C295.898 134.76 295.123 134.238 294.309 134.237C295.123 134.238 295.898 134.76 296.079 135.585C296.222 136.232 295.957 136.913 295.358 137.177C294.8 137.422 294.149 137.632 293.405 137.806C292.694 137.981 291.981 138.104 291.266 138.177ZM289.823 134.853C289.594 134.853 289.368 134.849 289.146 134.84C289.368 134.849 289.594 134.853 289.823 134.853C289.823 134.853 289.823 134.853 289.823 134.853ZM287.958 134.749C285.206 134.425 283.076 133.35 281.566 131.525C279.732 129.318 278.908 126.127 279.096 121.951C279.226 119.231 279.796 116.81 280.808 114.686C281.831 112.551 283.213 110.904 284.954 109.747C286.597 108.651 288.457 108.069 290.534 108C288.457 108.069 286.597 108.651 284.954 109.747C283.213 110.904 281.831 112.551 280.808 114.686C279.796 116.81 279.226 119.231 279.097 121.951C278.908 126.127 279.732 129.318 281.567 131.525C283.076 133.35 285.207 134.425 287.958 134.749ZM281.602 136.374L281.355 136.815L281.354 136.814L281.602 136.374ZM297.845 130.485C299.825 130.294 301.439 129.382 302.685 127.749C304.096 125.9 304.861 123.419 304.979 120.305C305.108 117.215 304.632 114.501 303.549 112.163C302.467 109.825 300.85 108.035 298.698 106.795C296.68 105.62 294.305 104.997 291.574 104.923C294.305 104.996 296.68 105.62 298.698 106.795C300.85 108.035 302.468 109.825 303.55 112.163C304.632 114.501 305.108 117.215 304.979 120.305C304.861 123.419 304.097 125.9 302.685 127.749C301.439 129.382 299.825 130.294 297.845 130.485ZM292.05 129.422C291.631 129.47 291.231 129.585 290.889 129.775C290.178 130.169 289.38 130.391 288.496 130.441C289.38 130.391 290.178 130.169 290.889 129.775C291.231 129.585 291.631 129.47 292.05 129.422ZM291.345 124.87C291.13 125.325 290.892 125.682 290.637 125.954L290.633 125.959C290.246 126.381 289.868 126.546 289.488 126.546C289.16 126.546 288.904 126.469 288.698 126.334C288.491 126.198 288.303 125.983 288.146 125.656C287.837 124.976 287.713 123.908 287.839 122.391C288.06 120.178 288.513 118.641 289.147 117.709C289.766 116.803 290.624 116.354 291.782 116.354C292.033 116.354 292.315 116.615 292.276 117.066L291.753 123.107C291.698 123.751 291.592 124.348 291.345 124.87ZM288.73 117.424C288.024 118.462 287.559 120.102 287.336 122.345C287.206 123.896 287.324 125.071 287.689 125.87C288.061 126.65 288.653 127.043 289.464 127.051C288.653 127.044 288.061 126.65 287.688 125.87C287.324 125.071 287.206 123.896 287.336 122.345C287.559 120.102 288.024 118.462 288.729 117.424C289.402 116.44 290.338 115.917 291.538 115.855C290.338 115.917 289.402 116.44 288.73 117.424Z" fill="#1976D2"/>
<path d="M317.178 203.269H304.613C303.493 203.269 302.585 204.179 302.585 205.3V234.062C302.585 235.183 303.493 236.092 304.613 236.092H309.78C310.706 236.092 311.514 235.465 311.745 234.568L319.142 205.807C319.473 204.521 318.504 203.269 317.178 203.269Z" fill="white"/>
<path fill-rule="evenodd" clip-rule="evenodd" d="M301.909 205.3C301.909 203.805 303.12 202.592 304.613 202.592H317.178C318.946 202.592 320.238 204.262 319.797 205.976L312.399 234.737C312.091 235.933 311.014 236.769 309.78 236.769H304.613C303.12 236.769 301.909 235.557 301.909 234.062V205.3ZM304.613 203.946C303.866 203.946 303.261 204.552 303.261 205.3V234.062C303.261 234.809 303.866 235.415 304.613 235.415H309.78C310.397 235.415 310.936 234.997 311.09 234.399L318.488 205.638C318.708 204.781 318.062 203.946 317.178 203.946H304.613Z" fill="#05182A"/>
<path d="M312.42 234.882V204.473V200.377C312.42 199.255 311.511 198.346 310.391 198.346H285.973C285.221 198.346 284.531 198.762 284.18 199.428L282.088 203.391C281.737 204.057 281.047 204.473 280.295 204.473H267.735C266.614 204.473 265.706 205.382 265.706 206.504V234.882C265.706 236.004 266.614 236.913 267.735 236.913H310.391C311.511 236.913 312.42 236.004 312.42 234.882Z" fill="#1976D2"/>
<path d="M260.024 54.4683L263.943 47.6844C264.105 47.4038 264.378 47.2057 264.694 47.1397L286.76 42.5313C287.075 42.4654 287.403 42.5369 287.662 42.7278L289.474 44.0621C290.206 44.6013 290.041 45.743 289.186 46.0524L261.39 56.1105C260.393 56.471 259.493 55.3879 260.024 54.4683Z" fill="#05182A"/>
<path d="M297.442 42.5145L262.409 37.6045C262.005 37.5479 261.675 37.9239 261.782 38.3184L264.07 46.774C264.143 47.0444 264.402 47.221 264.68 47.1904L288.289 44.5847L265.319 49.8948C265.032 49.9612 264.843 50.2366 264.883 50.5291L266.033 58.7979C266.086 59.1848 266.503 59.4034 266.851 59.2268L297.619 43.5867C298.115 43.3346 297.992 42.5916 297.442 42.5145Z" fill="white"/>
<path fill-rule="evenodd" clip-rule="evenodd" d="M261.234 38.4682C261.021 37.6791 261.681 36.9272 262.488 37.0403L297.521 41.9503C298.622 42.1046 298.867 43.5904 297.875 44.0947L267.107 59.7348L266.851 59.2267L267.107 59.7348C266.412 60.088 265.578 59.6508 265.47 58.8771L264.321 50.6083C264.24 50.0232 264.618 49.4724 265.192 49.3397L278.709 46.2149L264.741 47.7565C264.186 47.8178 263.669 47.4646 263.523 46.9237L261.234 38.4682ZM297.363 43.0786L262.33 38.1685L264.618 46.6241L288.227 44.0184L288.416 45.1397L265.446 50.4498L266.595 58.7186L297.363 43.0786Z" fill="#05182A"/>
<path d="M66.0002 35.1699L71.2805 36.01C72.2208 36.1597 72.4162 37.4274 71.5645 37.8532L66.8941 40.1877C66.6116 40.329 66.4145 40.5979 66.3648 40.9098L65.467 46.5527C65.3224 47.4615 64.1178 47.6872 63.654 46.8924L60.7429 41.9042C60.6014 41.6617 60.3626 41.4916 60.0871 41.4371L53.8627 40.206C52.9383 40.0232 52.7802 38.768 53.6304 38.3617L58.9978 35.7964C59.2593 35.6714 59.452 35.4371 59.5241 35.1564L61.1339 28.888C61.3707 27.9661 62.6506 27.8897 62.9953 28.7769L65.2413 34.5574C65.3674 34.882 65.6564 35.1152 66.0002 35.1699Z" fill="#1976D2"/>
<path d="M28.6938 89.5933L30.117 90.5708C30.9019 91.11 30.5336 92.3387 29.5816 92.3572L27.9061 92.3898C27.5903 92.396 27.2968 92.5541 27.1179 92.8145L25.9324 94.5404C25.4114 95.2989 24.2267 94.9852 24.1493 94.0683L23.9681 91.9204C23.9445 91.6406 23.8019 91.3844 23.5766 91.2168L21.6418 89.7782C20.8856 89.216 21.2821 88.0147 22.2244 88.013L24.3931 88.0092C24.6829 88.0087 24.9576 87.8798 25.1432 87.6574L26.7073 85.7833C27.3172 85.0525 28.5058 85.5334 28.4359 86.4827L28.2716 88.7141C28.246 89.0614 28.4068 89.3961 28.6938 89.5933Z" fill="#1976D2"/>
<path fill-rule="evenodd" clip-rule="evenodd" d="M211.299 63.5591C210.306 64.4243 209.362 65.328 208.469 66.2653L207.032 64.8951C207.967 63.914 208.955 62.9679 209.994 62.062L211.299 63.5591ZM205.9 69.221C205.083 70.2523 204.32 71.3136 203.61 72.3995L201.948 71.3133C202.69 70.1776 203.489 69.0674 204.343 67.9884L205.9 69.221ZM217.648 58.9899C216.509 59.6591 215.415 60.373 214.367 61.1271L213.207 59.5153C214.304 58.7257 215.449 57.9782 216.642 57.2777L217.648 58.9899ZM201.618 75.7725C201 76.9348 200.439 78.1168 199.936 79.3125L198.106 78.5423C198.632 77.2919 199.218 76.0558 199.864 74.8405L201.618 75.7725ZM224.733 55.6544C223.485 56.1104 222.279 56.6144 221.113 57.1626L220.268 55.3658C221.487 54.7924 222.748 54.2656 224.051 53.7894L224.733 55.6544ZM198.582 82.9891C198.184 84.2448 197.847 85.508 197.572 86.7721L195.632 86.3501C195.92 85.0255 196.273 83.7027 196.689 82.3886L198.582 82.9891ZM232.295 53.6016C230.984 53.8436 229.708 54.134 228.468 54.4697L227.949 52.553C229.242 52.203 230.57 51.9006 231.935 51.6489L232.295 53.6016ZM196.925 90.6291C196.848 91.2795 196.788 91.9282 196.745 92.5743C196.694 93.3257 196.662 94.0457 196.647 94.7356L194.661 94.6913C194.677 93.9703 194.711 93.2205 194.764 92.4408C194.809 91.7613 194.873 91.0795 194.953 90.3964L196.925 90.6291ZM238.153 52.8701C237.49 52.9152 236.835 52.972 236.188 53.0401L235.98 51.0653C236.652 50.9946 237.331 50.9357 238.018 50.8889L238.153 52.8701ZM196.79 99.0016C196.949 100.602 197.221 101.969 197.574 103.13L195.674 103.707C195.278 102.405 194.984 100.908 194.814 99.197L196.79 99.0016ZM197.92 107.019C197.01 107.532 196.083 108.207 195.17 109.077L193.8 107.64C194.828 106.66 195.887 105.885 196.946 105.289L197.92 107.019ZM192.898 111.729C192.569 112.192 192.246 112.687 191.929 113.217C191.641 113.7 191.378 114.19 191.14 114.686L189.35 113.826C189.613 113.277 189.905 112.734 190.225 112.198C190.567 111.625 190.919 111.087 191.278 110.58L192.898 111.729ZM189.969 117.809C189.666 118.896 189.459 119.998 189.334 121.102L187.361 120.878C187.497 119.678 187.723 118.472 188.057 117.276L189.969 117.809ZM204.357 105.752C203.413 105.578 202.29 105.569 201.068 105.821L200.666 103.876C202.131 103.574 203.514 103.577 204.717 103.799L204.357 105.752ZM199.331 106.74C200.259 107.959 201.317 108.636 202.331 108.957L201.733 110.85C200.311 110.4 198.917 109.474 197.751 107.943L199.331 106.74ZM189.192 124.474C189.221 125.62 189.324 126.752 189.485 127.855L187.519 128.141C187.349 126.966 187.238 125.755 187.207 124.524L189.192 124.474ZM207.037 107.762C207.133 107.568 207.14 107.35 206.921 107.046L208.533 105.886C209.1 106.675 209.297 107.675 208.815 108.645C208.407 109.468 207.638 110.116 206.753 110.543L205.89 108.755C206.505 108.458 206.879 108.079 207.037 107.762ZM190.154 131.198C190.448 132.354 190.792 133.45 191.159 134.463L189.292 135.14C188.904 134.069 188.541 132.911 188.23 131.688L190.154 131.198ZM192.483 137.6C192.755 138.155 193.022 138.653 193.275 139.087L191.56 140.087C191.281 139.609 190.991 139.068 190.7 138.473L192.483 137.6Z" fill="#05182A"/>
<path fill-rule="evenodd" clip-rule="evenodd" d="M249.616 44.1049L255.993 50.7596L250.766 56.6379L249.282 55.3183L252.558 51.6343C251.382 51.5709 250.228 51.5421 249.094 51.5465L249.087 49.5608C250.095 49.5569 251.118 49.5784 252.157 49.6261L248.183 45.4788L249.616 44.1049Z" fill="#05182A"/>
<path d="M61.1105 104.996C49.7777 113.021 54.5408 127.289 56.676 132.818L55.7405 144.1C56.7093 147.651 60.2237 154.755 66.5307 154.755C72.8378 154.755 75.7285 148.691 76.3855 145.659L75.4 137.098C82.791 134.423 83.2837 123.722 82.7909 115.161C82.2058 104.996 71.0928 97.9263 61.1105 104.996Z" fill="#EFCB96"/>
<path d="M57.031 130.021L56.0492 139.722C55.722 139.004 54.9693 136.92 54.5766 134.333C54.0858 131.099 46.2314 118.703 48.6859 109.541C50.6495 102.211 56.0493 102.534 58.5038 103.612C59.9765 100.917 68.8126 91.7549 81.5759 92.8328C94.3391 93.9107 95.8118 112.235 85.503 114.93C77.256 117.086 67.9944 115.828 64.3945 114.93C64.0673 115.649 63.1182 118.056 61.9401 121.937C60.4674 126.787 60.4674 127.865 59.9765 124.631C59.4856 121.398 57.5219 115.469 55.0675 121.398C53.1039 126.14 55.5584 129.123 57.031 130.021Z" fill="#05182A"/>
<path d="M64.1628 136.904C67.5406 138.895 72.7635 137.733 74.9528 136.904L75.4219 140.389C70.543 141.584 65.883 138.563 64.1628 136.904Z" fill="#05182A"/>
<path d="M66.0947 149.678C72.9676 149.678 76.621 145.916 77.809 143.68C77.9448 143.424 78.2066 143.249 78.4958 143.254C100.14 143.622 115.195 168.807 120.126 181.629C120.175 181.755 120.185 181.888 120.158 182.021L114.263 211.993C114.246 212.077 114.244 212.16 114.258 212.244C116.401 225.608 120.1 253.366 117.906 258.492C115.705 263.635 94.9806 267.216 78.0158 267.216C48.6716 267.216 10.799 266.481 6.03056 261.706C0.0699944 255.738 7.86468 181.358 21.1613 162.533C31.5549 147.819 47.3179 143.011 54.1652 143.226C54.4522 143.235 54.6912 143.426 54.8117 143.687C55.8442 145.925 59.2294 149.678 66.0947 149.678Z" fill="#1976D2"/>
<path d="M26.7603 250.333C21.8916 243.357 15.2647 221.417 12.5599 211.319C13.2361 225.242 22.365 256.759 26.7603 256.759C36.4978 259.697 61.7722 236.264 72.4789 225.248C57.4991 235.605 31.6291 257.31 26.7603 250.333Z" fill="#05182A"/>
<path d="M102.774 172.635L107.359 186.409H110.569L102.774 172.635Z" fill="#05182A"/>
<path d="M116.863 233.239C114.961 233.889 112.636 232.968 111.711 232.426L122.411 229.177C121.222 232.02 119.241 232.426 116.863 233.239Z" fill="#EFCB96"/>
<path d="M40.3794 250.436C32.3902 241.295 23.7352 239.619 20.4064 239.924C21.2941 244.037 24.9336 252.081 28.3956 253.178C31.8576 254.275 37.4944 251.959 40.3794 250.436Z" fill="#05182A"/>
<path d="M101.27 220.276L70.3389 229.177L100.499 234.861C100.602 234.881 100.708 234.878 100.809 234.852L141.125 224.672C141.446 224.59 141.671 224.301 141.671 223.97V220.972C141.671 220.572 141.347 220.248 140.948 220.248H101.47C101.403 220.248 101.335 220.257 101.27 220.276Z" fill="white"/>
<path fill-rule="evenodd" clip-rule="evenodd" d="M101.071 219.58C101.201 219.543 101.335 219.524 101.47 219.524H140.948C141.747 219.524 142.394 220.172 142.394 220.972V223.97C142.394 224.633 141.944 225.211 141.302 225.374L100.986 235.554C100.783 235.605 100.571 235.612 100.365 235.573L70.2051 229.888L70.1392 228.481L101.071 219.58ZM140.948 220.972L101.47 220.972L73.4673 229.03L100.632 234.15L140.948 223.97V220.972Z" fill="#05182A"/>
<path d="M71.4615 229.222L99.9751 230.922C100.357 230.945 100.655 231.261 100.655 231.644V234.104C100.655 234.528 100.294 234.861 99.8721 234.826L71.3585 232.446C70.9838 232.415 70.6956 232.101 70.6956 231.725V229.945C70.6956 229.528 71.046 229.197 71.4615 229.222Z" fill="white"/>
<path fill-rule="evenodd" clip-rule="evenodd" d="M69.9726 229.945C69.9726 229.111 70.6736 228.45 71.5044 228.499L100.018 230.199C100.782 230.245 101.378 230.878 101.378 231.644V234.104C101.378 234.951 100.655 235.617 99.812 235.547L71.2984 233.168C70.549 233.105 69.9726 232.478 69.9726 231.725V229.945ZM99.9321 231.644L71.4185 229.945L71.4615 229.222L71.4185 229.945V231.725L99.9321 234.104L99.9321 231.644Z" fill="#05182A"/>
<path d="M44.7088 210.653V190.961L49.7523 209.275C57.4991 208.462 64.0725 209.275 69.2689 209.275C48.1777 212.948 46.4426 213.105 37.8828 214.533L44.7088 210.653Z" fill="#05182A"/>
<path d="M103.653 185.588L100.552 230.393C100.518 230.889 100.981 231.271 101.46 231.143L141.278 220.51C141.562 220.434 141.772 220.193 141.809 219.901L147.125 177.754C147.187 177.266 146.756 176.86 146.273 176.952L104.24 184.927C103.917 184.988 103.676 185.26 103.653 185.588Z" fill="white"/>
<path fill-rule="evenodd" clip-rule="evenodd" d="M146.139 176.241C147.103 176.058 147.965 176.87 147.842 177.845L142.526 219.992C142.452 220.576 142.032 221.058 141.464 221.21L101.646 231.842C100.688 232.098 99.7624 231.334 99.831 230.343L102.932 185.538C102.977 184.882 103.459 184.338 104.105 184.216L146.139 176.241ZM146.408 177.663L104.374 185.639L101.273 230.443L141.091 219.811L146.408 177.663Z" fill="#05182A"/>
<path d="M129.983 205.468C128.678 210.368 125.239 213.704 122.303 212.92C119.367 212.135 118.045 207.527 119.351 202.627C120.656 197.727 124.095 194.391 127.031 195.175C129.967 195.959 131.289 200.567 129.983 205.468Z" fill="#1976D2"/>
<path d="M69.6255 211.437L71.2236 221.319C73.2211 220.496 76.3372 219.837 82.4097 220.496C86.4048 220.929 90.7994 214.731 88.0028 212.672C85.2063 210.613 82.0102 211.025 81.6107 210.613C81.2112 210.201 79.2137 207.319 75.6181 208.966C72.7417 210.284 70.8241 211.025 69.6255 211.437Z" fill="#EFCB96"/>
</g>
<defs>
<filter id="filter0_d_2_699" x="0" y="0" width="323.884" height="277" filterUnits="userSpaceOnUse" color-interpolation-filters="sRGB">
<feFlood flood-opacity="0" result="BackgroundImageFix"/>
<feColorMatrix in="SourceAlpha" type="matrix" values="0 0 0 0 0 0 0 0 0 0 0 0 0 0 0 0 0 0 127 0" result="hardAlpha"/>
<feOffset dy="4"/>
<feGaussianBlur stdDeviation="2"/>
<feComposite in2="hardAlpha" operator="out"/>
<feColorMatrix type="matrix" values="0 0 0 0 0 0 0 0 0 0 0 0 0 0 0 0 0 0 0.25 0"/>
<feBlend mode="normal" in2="BackgroundImageFix" result="effect1_dropShadow_2_699"/>
<feBlend mode="normal" in="SourceGraphic" in2="effect1_dropShadow_2_699" result="shape"/>
</filter>
</defs>
</svg>
