<svg width="22" height="22" viewBox="0 0 22 22" fill="none" xmlns="http://www.w3.org/2000/svg">
<path fill-rule="evenodd" clip-rule="evenodd" d="M11 2C6.02944 2 2 6.02944 2 11C2 15.9706 6.02944 20 11 20C15.9706 20 20 15.9706 20 11C20 6.02944 15.9706 2 11 2ZM0 11C0 4.92487 4.92487 0 11 0C17.0751 0 22 4.92487 22 11C22 17.0751 17.0751 22 11 22C4.92487 22 0 17.0751 0 11Z" fill="#05182A"/>
<path fill-rule="evenodd" clip-rule="evenodd" d="M9.10005 4.30032C8.43419 5.96497 8 8.33323 8 11C8 13.6668 8.43419 16.035 9.10005 17.6997C9.43409 18.5348 9.80683 19.1435 10.1696 19.527C10.5303 19.9085 10.8113 20 11 20C11.1887 20 11.4697 19.9085 11.8304 19.527C12.1932 19.1435 12.5659 18.5348 12.9 17.6997C13.5658 16.035 14 13.6668 14 11C14 8.33323 13.5658 5.96497 12.9 4.30032C12.5659 3.46523 12.1932 2.85653 11.8304 2.47296C11.4697 2.0915 11.1887 2 11 2C10.8113 2 10.5303 2.0915 10.1696 2.47296C9.80683 2.85653 9.43409 3.46523 9.10005 4.30032ZM8.71646 1.09874C9.31282 0.468144 10.0841 0 11 0C11.9159 0 12.6872 0.468144 13.2835 1.09874C13.8779 1.72723 14.3671 2.58299 14.7569 3.55754C15.5388 5.51218 16 8.14392 16 11C16 13.8561 15.5388 16.4878 14.7569 18.4425C14.3671 19.417 13.8779 20.2728 13.2835 20.9013C12.6872 21.5319 11.9159 22 11 22C10.0841 22 9.31282 21.5319 8.71646 20.9013C8.1221 20.2728 7.63292 19.417 7.2431 18.4425C6.46124 16.4878 6 13.8561 6 11C6 8.14392 6.46124 5.51218 7.2431 3.55754C7.63292 2.58299 8.1221 1.72723 8.71646 1.09874Z" fill="#05182A"/>
<path fill-rule="evenodd" clip-rule="evenodd" d="M1 10H21V12H1V10Z" fill="#05182A"/>
</svg>
